<svg width="100%" height="100%" viewBox="0 0 400 280" fill="none" xmlns="http://www.w3.org/2000/svg">
                  <rect x="0" y="0" width="400" height="280" rx="12" fill="#FAF8F5"></rect>
                  <rect x="24" y="24" width="48" height="48" rx="8" fill="#DCDCDC"></rect>
                  <path d="M48 31C43.5817 31 40 34.5817 40 39C40 43.4183 43.5817 47 48 47C52.4183 47 56 43.4183 56 39C56 34.5817 52.4183 31 48 31ZM48 49C39.1634 49 32 56.1634 32 65H64C64 56.1634 56.8366 49 48 49Z" fill="#A0A0A0"></path>
                  <text x="88" y="46" font-family="Arial, sans-serif" font-size="14" font-weight="bold" fill="#333333">Display Name</text>
                  <text x="88" y="62" font-family="Arial, sans-serif" font-size="10" fill="#666666">@username@instance</text>
                  <rect x="24" y="90" width="352" height="16" rx="4" fill="#DCDCDC"></rect>
                  <rect x="24" y="114" width="352" height="16" rx="4" fill="#DCDCDC"></rect>
                  <rect x="24" y="138" width="352" height="16" rx="4" fill="#DCDCDC"></rect>
                  <rect x="24" y="162" width="352" height="16" rx="4" fill="#EAEAEA"></rect>
                  <rect x="24" y="192" width="352" height="1" fill="#EAEAEA"></rect>
                  <text x="24" y="222" font-family="Arial, sans-serif" font-size="12" fill="#666666">8:45 PM · Oct 14 2025</text>
                  <g transform="translate(24, 238) scale(0.6667)" stroke="#DCDCDC" fill="none" stroke-width="2" stroke-linecap="round" stroke-linejoin="round">
                    <path d="M21 12c0 4.418-4.03 8-9 8a9.863 9.863 0 01-4.255-.949L3 20l1.395-3.72C3.512 15.042 3 13.574 3 12c0-4.418 4.03-8 9-8s9 3.582 9 8z"></path>
                    <circle cx="8" cy="12" r="1" fill="#DCDCDC" stroke="none"></circle>
                    <circle cx="12" cy="12" r="1" fill="#DCDCDC" stroke="none"></circle>
                    <circle cx="16" cy="12" r="1" fill="#DCDCDC" stroke="none"></circle>
                  </g>
                  <text x="46" y="250" font-family="Arial, sans-serif" font-size="12" fill="#666666">0</text>
                  <g transform="translate(70, 238) scale(0.6667)" stroke="#DCDCDC" fill="none" stroke-width="2" stroke-linecap="round" stroke-linejoin="round">
                    <path d="M8 7h12m0 0l-4-4m4 4l-4 4m0 6H4m0 0l4 4m-4-4l4-4"></path>
                  </g>
                  <text x="92" y="250" font-family="Arial, sans-serif" font-size="12" fill="#666666">0</text>
                  <g transform="translate(116, 238) scale(0.6667)" stroke="#DCDCDC" fill="none" stroke-width="2" stroke-linecap="round" stroke-linejoin="round">
                    <path d="M11.049 2.927c.3-.921 1.603-.921 1.902 0l1.519 4.674a1 1 0 00.95.69h4.915c.969 0 1.371 1.24.588 1.81l-3.976 2.888a1 1 0 00-.363 1.118l1.518 4.674c.3.922-.755 1.688-1.538 1.118l-3.976-2.888a1 1 0 00-1.176 0l-3.976 2.888c-.783.57-1.838-.196-1.538-1.118l1.518-4.674a1 1 0 00-.363-1.118l-3.976-2.888c-.783-.57-.38-1.81.588-1.81h4.914a1 1 0 00.951-.69l1.519-4.674z"></path>
                  </g>
                  <text x="138" y="250" font-family="Arial, sans-serif" font-size="12" fill="#666666">0</text>
                </svg>